<svg xmlns="http://www.w3.org/2000/svg" height="173.825" width="1000.001">
  <path d="M198.43495.00000305 162.60908 137.99793 300.60703 173.825l35.82586-137.997927L198.43495.00000305ZM0 15.340573V158.50483h63.326806v-53.00616c8.943864 0 15.509974 4.31529 19.700447 12.94642 4.253023 8.63114 6.974576 21.98439 8.162918 40.05974h65.765359c-3.00213-28.08246-12.22767-50.942-27.67615-68.579527 10.88273-7.63043 16.32464-18.20121 16.32464-31.71081 0-12.25872-4.62831-22.45316-13.88488-30.58394-9.25659-8.19332-21.985-12.28998-38.184018-12.28998H0Zm350.64539 0V158.50483h99.91472c15.51103 0 27.5513-3.59607 36.11989-10.78867 8.63114-7.19262 12.94642-16.7933 12.94642-28.80183 0-7.69297-1.90675-14.10378-5.72196-19.232417-3.81521-5.19119-9.41362-9.7263-16.79386-13.60407 12.44634-7.06752 18.66958-17.32408 18.66958-30.77114 0-12.32126-4.69043-22.04737-14.07209-29.17745-9.31913-7.19261-23.1419-10.78868-41.46742-10.78868h-89.59528zm168.12464 0V158.50483h118.9599v-35.93148h-55.53949V15.340573h-63.42041zm298.47571 0 55.91511 70.73727-55.91511 72.426987h68.86153l21.8594-28.42619 22.70302 28.42619h69.33081l-57.60363-72.801407 54.13299-70.36285h-68.76794l-20.17086 26.36207-21.10813-26.36207h-69.23719zm-159.74931.28562V158.19881h142.57261V15.626193H657.49643zm-243.43063 28.5162h3.84625c11.13291 0 16.70026 4.62831 16.70026 13.88488 0 5.12864-1.43964 8.75577-4.31668 10.88229-2.87705 2.06397-7.75503 3.0962-14.63492 3.0962h-1.59491v-27.86337zm-350.738994.65644h3.846246c5.378823 0 9.224584 1.43843 11.538733 4.31548 2.314142 2.8145 3.471819 6.09876 3.471819 9.85142 0 8.94387-5.691597 13.41565-17.074685 13.41565h-1.782113v-27.58255zm176.327154 25.32761 26.65249 6.91964-6.91964 26.652477-26.65128-6.919627 6.91843-26.65249zm475.36089 3.01819h27.53577v27.535737h-27.53577V73.144633zM414.0658 96.022883h4.40909c11.82089 0 17.73232 5.378567 17.73232 16.136217 0 5.44136-1.56386 9.28832-4.6911 11.53993-3.06467 2.18906-8.22462 3.28341-15.47977 3.28341h-1.97054V96.022883z" style="color:#000;font-style:normal;font-variant:normal;font-weight:700;font-stretch:normal;font-size:314px;line-height:125%;font-family:'Gill Sans Ultra Bold';-inkscape-font-specification:'Gill Sans Ultra Bold, Bold';text-align:start;writing-mode:lr-tb;text-anchor:start;clip-rule:nonzero;visibility:visible;isolation:auto;mix-blend-mode:normal;color-interpolation:sRGB;color-interpolation-filters:linearRGB;solid-color:#000;solid-opacity:1;fill:#000;fill-opacity:1;fill-rule:nonzero;stroke:none;stroke-width:12;stroke-linecap:butt;stroke-linejoin:miter;stroke-miterlimit:4;stroke-dasharray:none;stroke-dashoffset:0;stroke-opacity:1;color-rendering:auto;image-rendering:auto;shape-rendering:auto;text-rendering:auto"/>
</svg>
